<?xml version="1.0" encoding="utf-8"?>
<!-- Generator: Adobe Illustrator 21.1.0, SVG Export Plug-In . SVG Version: 6.00 Build 0)  -->
<svg version="1.1" id="Layer_1" xmlns="http://www.w3.org/2000/svg" xmlns:xlink="http://www.w3.org/1999/xlink" x="0px" y="0px"
	 viewBox="0 0 20 20" style="enable-background:new 0 0 20 20;" xml:space="preserve">
<style type="text/css">
	.st0{fill:#FFFFFF;}
</style>
<g>
	<path class="st0" d="M10.3,9.1C10.2,9.1,10.1,9,10,9C9.4,8.9,8.7,8.8,8,8.8C7.3,8.7,6.5,8.6,5.7,8.4c-0.1,0-0.2,0-0.2-0.1
		C5.3,6.2,5.3,4.2,5.4,2.1c0,0-0.1,0-0.1,0c-0.1,0-0.2,0-0.3,0.1C5,2.3,5,2.3,5,2.4C4.3,3.4,3.7,4.5,3,5.5c-0.9,1.3-1.7,2.7-2.6,4
		C0.3,9.7,0.2,9.8,0.1,10C0,10.2,0,10.3,0.1,10.5c0.4,0,0.9-0.1,1.3-0.1c0.4,0,0.9,0,1.3,0c0.4,0,0.9,0,1.3,0c0.4,0,0.9,0,1.3,0
		c0,0.1,0,0.1-0.1,0.2c-0.1,0.3-0.3,0.6-0.4,0.9c-0.2,0.4-0.4,0.9-0.6,1.3c-0.3,0.5-0.5,1-0.8,1.6c-0.5,1.1-1,2.2-1.5,3.3
		C2,17.8,2,18,2,18.2c0.1,0.1,0.2,0.1,0.3,0c0.1-0.1,0.2-0.1,0.3-0.2c0.3-0.3,0.6-0.5,0.9-0.8c0.3-0.3,0.6-0.6,0.9-0.8
		c0.6-0.6,1.2-1.1,1.8-1.7c0.5-0.5,1-1,1.4-1.5c0.3-0.4,0.6-0.8,0.9-1.2c0.3-0.4,0.7-0.9,1-1.3c0.3-0.4,0.6-0.8,0.9-1.2
		c0,0,0,0,0-0.1C10.4,9.3,10.4,9.2,10.3,9.1z"/>
	<path class="st0" d="M20,1.9c-0.1-0.1-0.2-0.1-0.4-0.1c-0.4,0.1-0.8,0.1-1.2,0.3c-0.2,0.1-0.5,0.2-0.7,0.2
		c-0.8,0.2-1.6,0.5-2.5,0.7c-1.6,0.5-3.1,1-4.6,1.7c-0.1,0.1-0.3,0.2-0.4,0.2c-0.1,0-0.2,0.1-0.3,0.1c-0.1,0-0.1,0.1-0.2,0.1
		c0.1,0.2,0.2,0.3,0.4,0.3c0.3,0.1,0.6,0.2,1,0.3c0.4,0.1,0.8,0.3,1.3,0.4c0.4,0.1,0.7,0.2,1.1,0.4c0.1,0,0.3,0.1,0.4,0.2
		C14,6.9,14,7,14.1,7.1c0.2,0.5,0.3,1.1,0.5,1.6c0.3,1.2,0.6,2.4,1,3.5c0.1,0.1,0.1,0.3,0.1,0.4c0,0,0,0.1,0,0.1
		c-0.5-0.2-0.9-0.4-1.4-0.5c-1.4-0.4-2.8-0.8-4.1-1.1c0,0-0.1,0-0.1,0c-0.1,0-0.1,0-0.2,0.1c0,0.1,0,0.2,0.1,0.3
		c0.4,0.3,0.7,0.7,1.1,1c0.6,0.5,1.3,1,2,1.5c0.7,0.5,1.4,1.1,2.1,1.6c0.9,0.6,1.8,1.2,2.7,1.9c0.1,0.1,0.2,0.1,0.3,0.2
		c0.1,0.1,0.2,0,0.2,0c0.1-0.1,0.1-0.2,0.1-0.3c0-0.3,0-0.5-0.1-0.8c-0.1-0.4-0.2-0.9-0.3-1.3c-0.1-0.7-0.3-1.3-0.4-2
		c-0.2-1.2-0.3-2.4-0.5-3.6c-0.1-0.8-0.2-1.5-0.3-2.3c0-0.3-0.1-0.7-0.2-1c0.2-0.2,0.4-0.5,0.5-0.7c0.7-0.8,1.4-1.6,2-2.5
		c0.2-0.3,0.4-0.6,0.6-0.9C20,2.1,20,2,20,1.9z"/>
</g>
</svg>
