<svg xmlns="http://www.w3.org/2000/svg" width="1381.5" height="154.14" viewBox="0 0 230.25 25.69">
  <metadata><?xpacket begin="﻿" id="W5M0MpCehiHzreSzNTczkc9d"?>
<x:xmpmeta xmlns:x="adobe:ns:meta/" x:xmptk="Adobe XMP Core 5.6-c140 79.160451, 2017/05/06-01:08:21        ">
   <rdf:RDF xmlns:rdf="http://www.w3.org/1999/02/22-rdf-syntax-ns#">
      <rdf:Description rdf:about=""/>
   </rdf:RDF>
</x:xmpmeta>
                                                                                                    
                                                                                                    
                                                                                                    
                                                                                                    
                                                                                                    
                                                                                                    
                                                                                                    
                                                                                                    
                                                                                                    
                                                                                                    
                                                                                                    
                                                                                                    
                                                                                                    
                                                                                                    
                                                                                                    
                                                                                                    
                                                                                                    
                                                                                                    
                                                                                                    
                                                                                                    
                           
<?xpacket end="w"?></metadata>
<defs>
    <style>
      .cls-1 {
        fill: #fff;
        fill-rule: evenodd;
      }
    </style>
  </defs>
  <path id="gastronómica" class="cls-1" d="M75.5,1519.79c6.376,0,6.792-4.8,6.792-6.05,1.333,0,1.542.04,1.959,0.04a0.659,0.659,0,0,0,.625-0.7,0.676,0.676,0,0,0-.625-0.75,18.489,18.489,0,0,1-3.375.2H80.706a19.669,19.669,0,0,1-3.375-.2,0.7,0.7,0,0,0-.625.75,0.687,0.687,0,0,0,.625.7c0.417,0,.625-0.04,2-0.04,0,4-1.792,4.71-3.584,4.71-3.167,0-4.917-2.04-4.917-7.5,0-5.5,1.75-7.5,4.917-7.5a4.637,4.637,0,0,1,4.626,4.71,0.676,0.676,0,1,0,1.333,0v-5.17c0-.46-0.083-0.75-0.667-0.75a0.629,0.629,0,0,0-.667.79,0.79,0.79,0,0,1-.375.67,6.209,6.209,0,0,0-4.5-1.63c-4.334,0-8,3.59-8,8.88S71.163,1519.79,75.5,1519.79Zm21.72-5.21,1.5,3.58c-1.209,0-1.334-.04-1.75-0.04a0.7,0.7,0,0,0-.625.75,0.663,0.663,0,0,0,.625.71,19.653,19.653,0,0,1,3.334-.21h0.042a18.188,18.188,0,0,1,3.375.21,0.662,0.662,0,0,0,.625-0.71,0.7,0.7,0,0,0-.625-0.75c-0.417,0-.542.04-1.875,0.04l-6.543-15.5a0.672,0.672,0,0,0-1.334,0l-6.751,15.5c-1.125,0-1.459-.04-1.875-0.04a0.676,0.676,0,0,0-.625.75,0.639,0.639,0,0,0,.625.71,14.083,14.083,0,0,1,2.625-.21,15.113,15.113,0,0,1,2.709.21,0.663,0.663,0,0,0,.625-0.71,0.7,0.7,0,0,0-.625-0.75c-0.417,0-.917.04-1.959,0.04l1.542-3.58h6.959Zm-6.334-1.46,2.917-6.71,2.792,6.71H90.883Zm27.668,1.62c0-2.87-2.042-4.54-5.292-5.41l-1.959-.5c-1.417-.38-2.584-1.3-2.584-2.67,0-1.96,1.751-2.79,3.542-2.79a3.572,3.572,0,0,1,3.793,3.54,0.648,0.648,0,1,0,1.291,0v-4.13a0.59,0.59,0,0,0-.666-0.71,0.628,0.628,0,0,0-.625.75,0.353,0.353,0,0,1-.251.38,6.051,6.051,0,0,0-3.542-1.13c-2.875,0-5.709,1.63-5.709,4.96,0,3,2.584,4.38,4.751,5.05l1.667,0.5c2.25,0.66,3.334,1.5,3.334,2.95,0,2.3-1.834,2.96-3.793,2.96-1.791,0-4.417-1.58-4.417-4.16a0.648,0.648,0,0,0-.667-0.75,0.619,0.619,0,0,0-.666.75v4.75a0.607,0.607,0,0,0,.708.71c0.5,0,.625-0.21.625-0.75a1.088,1.088,0,0,1,.292-0.71,7.867,7.867,0,0,0,4.334,1.46C115.717,1519.79,118.551,1518.16,118.551,1514.74Zm18.125-7.33c0-.42-0.208-1.58-0.208-3.29v-1.13a0.676,0.676,0,0,0-.626-0.75c-0.375,0-1.666.21-2.291,0.21h-9c-0.666,0-1.958-.21-2.333-0.21a0.675,0.675,0,0,0-.625.75v1.13c0,1.71-.167,2.87-0.167,3.29a0.62,0.62,0,0,0,.667.62,0.647,0.647,0,0,0,.667-0.62c0-3,.666-3.75,3.083-3.75h1.709v14.5c-2,0-2.25-.04-2.667-0.04a0.7,0.7,0,0,0-.625.75,0.662,0.662,0,0,0,.625.71,25.313,25.313,0,0,1,4.084-.21h0.166a24.941,24.941,0,0,1,4.042.21,0.639,0.639,0,0,0,.626-0.71,0.676,0.676,0,0,0-.626-0.75c-0.416,0-.666.04-2.666,0.04v-14.5h1.75c2.375,0,3.042.75,3.042,3.75a0.659,0.659,0,0,0,.708.62A0.62,0.62,0,0,0,136.676,1507.41Zm14.457-.83c0,2.54-1.416,3.37-4.083,3.37h-0.917v-6.29H147.3C150.175,1503.66,151.133,1504.58,151.133,1506.58Zm-0.875,3.79c2-.42,3.959-2,3.959-3.92,0-2.17-2-4.04-6.459-4.04-1.042,0-2.584.08-3.417,0.08a23.328,23.328,0,0,1-3.834-.21,0.676,0.676,0,0,0-.625.75,0.639,0.639,0,0,0,.625.71c0.417,0,.667-0.04,2.667-0.04v14.46c-2,0-2.25-.04-2.667-0.04a0.676,0.676,0,0,0-.625.75,0.639,0.639,0,0,0,.625.71,24.973,24.973,0,0,1,4.042-.21h0.209a24.973,24.973,0,0,1,4.042.21,0.639,0.639,0,0,0,.625-0.71,0.676,0.676,0,0,0-.625-0.75c-0.417,0-.667.04-2.667,0.04v-7h1.625c3.042,0,3.5,1.08,3.5,3.83,0,3.96,1.334,4.92,3.417,4.92a2.013,2.013,0,0,0,2.084-1.92,0.646,0.646,0,0,0-1.292.05c0,0.5-.083.87-0.625,0.87a0.869,0.869,0,0,1-.75-1.08c0-.88.125-1.09,0.125-2.84A4.851,4.851,0,0,0,150.258,1510.37Zm24.751,0.58c0-5.29-3.626-8.88-8-8.88-4.334,0-8,3.59-8,8.88s3.667,8.84,8,8.84C171.383,1519.79,175.009,1516.24,175.009,1510.95Zm-3.334,0c0,5.67-1.625,7.5-4.667,7.5s-4.667-1.83-4.667-7.5,1.625-7.5,4.667-7.5S171.675,1505.28,171.675,1510.95Zm11.832-5.37,9.543,13.71a1.067,1.067,0,0,0,.917.58,0.771,0.771,0,0,0,.708-0.96V1503.7c1.708,0,1.917.04,2.334,0.04a0.663,0.663,0,0,0,.625-0.71,0.7,0.7,0,0,0-.625-0.75,17.138,17.138,0,0,1-3.042.21h-0.084a16.859,16.859,0,0,1-3-.21,0.675,0.675,0,0,0-.625.75,0.638,0.638,0,0,0,.625.71c0.417,0,.583-0.04,2.333-0.04v10.67l-7.584-10.88c-0.583-.83-0.833-1.04-1.333-1.04-0.292,0-.75.04-1.167,0.04h-0.375a17.11,17.11,0,0,1-3.042-.21,0.7,0.7,0,0,0-.625.75,0.662,0.662,0,0,0,.625.71c0.416,0,.625-0.04,2.333-0.04v14.46c-1.708,0-1.917-.04-2.333-0.04a0.7,0.7,0,0,0-.625.75,0.662,0.662,0,0,0,.625.71,17.11,17.11,0,0,1,3.042-.21h0.083a16.305,16.305,0,0,1,3,.21,0.639,0.639,0,0,0,.625-0.71,0.676,0.676,0,0,0-.625-0.75c-0.417,0-.626.04-2.334,0.04v-12.58Zm29.459-10.88a1.4,1.4,0,0,0-2-.17c-0.625.5-1.417,2.46-4.5,5a0.46,0.46,0,0,0,.584.71c3.042-2.58,5.084-3.04,5.709-3.58A1.357,1.357,0,0,0,212.966,1494.7Zm3.792,16.25c0-5.29-3.625-8.88-8-8.88-4.334,0-8,3.59-8,8.88s3.667,8.84,8,8.84C213.133,1519.79,216.758,1516.24,216.758,1510.95Zm-3.334,0c0,5.67-1.625,7.5-4.667,7.5s-4.667-1.83-4.667-7.5,1.625-7.5,4.667-7.5S213.424,1505.28,213.424,1510.95Zm12.416-8.5c-0.459,0-.917.04-1.25,0.04h-0.084a17.124,17.124,0,0,1-3.042-.21,0.7,0.7,0,0,0-.625.75,0.662,0.662,0,0,0,.625.71c0.417,0,.625-0.04,2.334-0.04v14.46c-1.709,0-1.917-.04-2.334-0.04a0.7,0.7,0,0,0-.625.75,0.662,0.662,0,0,0,.625.71,17.124,17.124,0,0,1,3.042-.21h0.084a12.371,12.371,0,0,1,1.958.21,0.639,0.639,0,0,0,.625-0.71,0.676,0.676,0,0,0-.625-0.75c-0.417,0-.667.04-1.292,0.04v-11.38l5.126,12.42a0.758,0.758,0,0,0,.792.59,0.849,0.849,0,0,0,.875-0.55l5.25-12.75v11.67c-0.958,0-1.208-.04-1.625-0.04a0.7,0.7,0,0,0-.625.75,0.662,0.662,0,0,0,.625.71,17.124,17.124,0,0,1,3.042-.21,24.941,24.941,0,0,1,4.042.21,0.638,0.638,0,0,0,.625-0.71,0.675,0.675,0,0,0-.625-0.75c-0.416,0-.666.04-2.667,0.04V1503.7c2,0,2.251.04,2.667,0.04a0.638,0.638,0,0,0,.625-0.71,0.675,0.675,0,0,0-.625-0.75,25.273,25.273,0,0,1-4.083.21h-0.751c-0.375,0-.541.13-0.875,0.92l-5.125,12.37-5.084-12.46C226.506,1502.66,226.34,1502.45,225.84,1502.45Zm28.249,15.71V1503.7c2,0,2.251.04,2.667,0.04a0.638,0.638,0,0,0,.625-0.71,0.675,0.675,0,0,0-.625-0.75,24.941,24.941,0,0,1-4.042.21h-0.208a24.941,24.941,0,0,1-4.042-.21,0.675,0.675,0,0,0-.625.75,0.638,0.638,0,0,0,.625.71c0.416,0,.666-0.04,2.667-0.04v14.46c-2,0-2.251-.04-2.667-0.04a0.675,0.675,0,0,0-.625.75,0.638,0.638,0,0,0,.625.71,24.941,24.941,0,0,1,4.042-.21h0.208a24.941,24.941,0,0,1,4.042.21,0.638,0.638,0,0,0,.625-0.71,0.675,0.675,0,0,0-.625-0.75C256.34,1518.12,256.09,1518.16,254.089,1518.16Zm22.043,0.75v-5.21a0.642,0.642,0,0,0-.667-0.79,0.669,0.669,0,0,0-.667.79,4.64,4.64,0,0,1-4.625,4.75c-3.167,0-4.917-2.04-4.917-7.5,0-5.5,1.75-7.5,4.917-7.5a4.636,4.636,0,0,1,4.625,4.71,0.677,0.677,0,1,0,1.334,0v-5.17c0-.46-0.083-0.75-0.667-0.75a0.63,0.63,0,0,0-.667.79,0.928,0.928,0,0,1-.375.67,6.283,6.283,0,0,0-4.5-1.63c-4.334,0-8,3.59-8,8.88s3.667,8.84,8,8.84a5.915,5.915,0,0,0,4.5-1.59,0.8,0.8,0,0,1,.375.67,0.677,0.677,0,0,0,.667.79C276.09,1519.66,276.132,1519.33,276.132,1518.91Zm14.5-4.33,1.5,3.58c-1.208,0-1.333-.04-1.75-0.04a0.7,0.7,0,0,0-.625.75,0.662,0.662,0,0,0,.625.71,19.66,19.66,0,0,1,3.334-.21h0.041a18.2,18.2,0,0,1,3.376.21,0.663,0.663,0,0,0,.625-0.71,0.7,0.7,0,0,0-.625-0.75c-0.417,0-.542.04-1.876,0.04l-6.542-15.5a0.672,0.672,0,0,0-1.334,0l-6.75,15.5c-1.126,0-1.459-.04-1.876-0.04a0.676,0.676,0,0,0-.625.75,0.639,0.639,0,0,0,.625.71,14.085,14.085,0,0,1,2.626-.21,15.1,15.1,0,0,1,2.708.21,0.662,0.662,0,0,0,.625-0.71,0.7,0.7,0,0,0-.625-0.75c-0.416,0-.916.04-1.958,0.04l1.542-3.58h6.959Zm-6.334-1.46,2.917-6.71,2.792,6.71H284.3Z" transform="translate(-67.5 -1494.22)"/>
</svg>
