<?xml version="1.0" encoding="utf-8"?>
<!-- Generator: Adobe Illustrator 21.1.0, SVG Export Plug-In . SVG Version: 6.00 Build 0)  -->
<svg version="1.1" id="Layer_1" xmlns="http://www.w3.org/2000/svg" xmlns:xlink="http://www.w3.org/1999/xlink" x="0px" y="0px"
	 viewBox="0 0 600 600" style="enable-background:new 0 0 600 600;" xml:space="preserve">
<g>
	<path d="M309,275c-2.6-1.7-5.7-3.2-8.7-3.6c-18.9-2.5-37.9-4.8-56.9-6.8c-22.7-2.4-45.1-6.3-67.5-10.9c-2.5-0.5-4.9-1.3-7.2-2
		c-3.1-60.2-4.1-120.2-1.5-180c-1.2-0.1-2.2-0.1-3.1-0.2c-4.2-0.6-5.2-0.1-7.3,3.7c-0.8,1.4-1.5,2.9-2.3,4.2
		c-18.5,30.1-36.7,60.3-55.6,90.1c-24.7,38.9-50.1,77.4-75.2,116c-3.3,5.1-6.9,10.1-10.2,15.2c-3.5,5.3-3.2,8.1,1.5,13
		c12.2-0.7,25-1.5,37.8-2c12.8-0.5,25.7-1,38.5-1c12.8-0.1,25.7,0.1,38.5,0.8c12.7,0.7,25.6-0.8,38.7,1.2c-0.7,2.3-1.1,4.1-1.7,5.9
		c-2.7,8.8-7.3,16.7-11.5,24.9c-6.4,12.4-12.3,25-18.4,37.6c-7.3,15-15,29.8-21.9,45c-14.6,31.8-28.9,63.7-43.2,95.6
		c-1.9,4.3-3.4,8.9-3.7,13.9c3,2.3,5.5,2.8,8.1,0.9c2.6-1.9,5.1-3.8,7.5-5.9c9-7.7,18.1-15.4,26.9-23.4c8.7-7.9,17-16.2,25.5-24.1
		c17.4-16.2,35.1-32,52.1-48.6c14.2-13.9,28-28.4,41.2-43.2c9.5-10.6,18.6-21.8,26.5-33.6c8.8-13,18.8-24.8,28.9-36.7
		c9.4-11.2,17.6-23.3,25.4-35.7c0.3-0.5,0.6-1.1,0.9-1.7C312.5,280,312.1,277.1,309,275z"/>
	<path d="M588.6,65.7c-2.9-2.5-6.4-3.9-10.2-3c-11.8,2.9-24,4.2-35.4,9c-6.6,2.8-13.6,4.9-20.5,6.9c-23.7,6.9-47.6,13.3-71.3,20.5
		c-45.7,13.8-90.9,28.9-134,49.7c-4.3,2.1-8.5,4.6-12.7,6.9c-2.5,1.4-5.1,2.7-7.6,4.1c-1.5,0.8-2.9,1.7-4.5,2.6
		c2.9,4.8,5.4,8.5,10.8,10c9.4,2.7,18.6,6.2,27.8,9.5c12.1,4.2,24.2,8.5,36.4,12.7c10.6,3.6,21.4,6.9,32,10.5
		c4.2,1.4,8.3,3.3,12.5,5c2.7,1.1,4.4,3,5.2,5.9c4.7,15.3,10,30.5,14.3,45.9c9.5,33.8,16.3,68.4,28.1,101.6
		c1.5,4.2,2.7,8.6,3.9,12.9c0.3,1.1,0.5,2.3,0.6,3c-13.3-5-26.3-10.4-39.7-14.8c-39.4-12.9-79.6-22.9-119.8-32.8
		c-1.1-0.3-2.2-0.5-3.3-0.5c-2.6-0.2-4.2,1.2-5.2,3.5c-1.2,2.8-0.7,4.9,2.3,7.6c10.9,9.4,21.7,19.2,33,28.1
		c18.7,14.9,37.9,29.3,56.8,43.8c20,15.3,39.7,31.1,60.1,45.9c25.4,18.3,51.4,35.8,77.1,53.7c3,2.1,6,4.3,9,6.4
		c2.4,1.7,4.5,1.3,6.5-0.6c2.4-2.2,3.6-5.1,3.4-8.2c-0.4-7.7-0.3-15.4-1.6-23c-2.1-12.5-5.1-24.8-7.5-37.3
		c-3.8-19.4-7.4-38.8-11.1-58.2c-6.7-34.2-9.6-69-14.4-103.5c-3-21.9-6.2-43.9-9.4-65.8c-1.4-9.7-3-19.3-4.6-29.4
		c5.1-6.9,10.2-13.9,15.5-20.7c19.1-24.4,39.8-47.6,57.8-72.8c5.9-8.4,11.8-16.8,17.6-25.2C588.6,72.6,589.4,69.4,588.6,65.7z"/>
</g>
</svg>
